<?xml version="1.0" standalone="no"?>
<!DOCTYPE svg PUBLIC "-//W3C//DTD SVG 20010904//EN"
 "http://www.w3.org/TR/2001/REC-SVG-20010904/DTD/svg10.dtd">
<svg version="1.0" xmlns="http://www.w3.org/2000/svg"
 width="225.000000pt" height="225.000000pt" viewBox="0 0 225.000000 225.000000"
 preserveAspectRatio="xMidYMid meet">

<g transform="translate(0.000000,225.000000) scale(0.100000,-0.100000)"
fill="#000000" stroke="none">
<path d="M404 2216 c-17 -8 -46 -35 -64 -60 -26 -36 -39 -46 -62 -46 -18 0
-39 -10 -55 -26 -20 -20 -24 -31 -19 -57 4 -17 11 -36 16 -41 6 -6 6 3 -1 23
-14 40 2 87 27 77 8 -3 12 -2 9 4 -4 6 5 10 20 10 23 0 25 -3 19 -22 -3 -13
-10 -24 -15 -26 -4 -2 -5 -10 -2 -18 3 -10 14 6 29 42 27 68 65 110 119 135
46 21 26 25 -21 5z"/>
<path d="M538 2223 c6 -2 18 -2 25 0 6 3 1 5 -13 5 -14 0 -19 -2 -12 -5z"/>
<path d="M625 2191 c37 -21 59 -27 80 -24 23 5 27 3 22 -11 -7 -17 1 -20 21
-8 17 11 -31 37 -52 29 -9 -3 -35 5 -58 18 -24 14 -47 25 -53 25 -5 0 13 -13
40 -29z"/>
<path d="M272 2177 c-12 -13 -22 -30 -22 -38 0 -8 6 -3 13 11 7 13 24 30 37
37 15 8 19 13 9 13 -8 0 -25 -10 -37 -23z"/>
<path d="M783 2163 c9 -2 23 -2 30 0 6 3 -1 5 -18 5 -16 0 -22 -2 -12 -5z"/>
<path d="M830 2156 c0 -2 7 -7 16 -10 8 -3 12 -2 9 4 -6 10 -25 14 -25 6z"/>
<path d="M850 2100 c0 -5 5 -10 10 -10 6 0 10 5 10 10 0 6 -4 10 -10 10 -5 0
-10 -4 -10 -10z"/>
<path d="M979 2043 c-13 -15 -12 -15 8 -3 30 19 51 0 56 -53 l4 -42 1 42 c3
62 -38 95 -69 56z"/>
<path d="M668 2043 c7 -3 16 -2 19 1 4 3 -2 6 -13 5 -11 0 -14 -3 -6 -6z"/>
<path d="M823 1999 c-37 -34 -43 -45 -41 -77 l1 -37 4 35 c3 19 8 37 11 40 14
11 76 80 71 80 -2 0 -23 -19 -46 -41z"/>
<path d="M594 2008 l-19 -23 23 19 c21 18 27 26 19 26 -2 0 -12 -10 -23 -22z"/>
<path d="M927 1978 c-10 -21 -43 -58 -72 -84 -53 -44 -115 -126 -115 -148 1
-6 8 3 16 19 9 17 51 66 94 110 86 89 126 142 107 142 -7 0 -20 -18 -30 -39z"/>
<path d="M272 1976 l-2 -39 -22 19 c-19 15 -18 13 3 -11 14 -17 38 -52 53 -78
26 -46 79 -92 141 -124 39 -20 23 -6 -48 41 -58 39 -115 115 -102 136 3 5 2
10 -4 10 -5 0 -12 19 -14 43 l-4 42 -1 -39z"/>
<path d="M1662 1968 c-14 -14 -16 -57 -2 -78 16 -25 -9 -42 -54 -36 -40 5 -40
5 -8 -5 32 -10 37 -20 24 -50 -6 -14 -11 -14 -41 -2 -25 11 -32 18 -28 33 3
11 1 18 -4 14 -23 -14 -7 -42 31 -57 25 -10 40 -22 41 -34 1 -10 5 4 9 30 10
57 28 85 42 65 6 -8 7 -2 3 17 -4 17 -8 46 -8 64 -2 29 2 36 23 42 21 6 22 7
5 8 -12 1 -26 -4 -33 -11z"/>
<path d="M1751 1905 c35 -80 68 -115 107 -114 23 1 21 3 -11 11 -45 12 -56 31
-33 57 32 35 8 78 -39 69 -14 -3 -25 -2 -25 1 0 4 -7 16 -15 27 -8 10 -1 -12
16 -51z m66 -1 c7 -18 -6 -45 -24 -51 -8 -3 -33 45 -33 63 0 13 52 1 57 -12z"/>
<path d="M990 1892 c-25 -26 -80 -68 -122 -94 -114 -69 -141 -125 -98 -208 27
-52 68 -80 120 -80 36 0 48 6 81 39 46 46 49 61 12 62 -23 1 -21 3 11 10 48
11 65 24 19 15 -28 -7 -31 -5 -26 13 4 15 -1 22 -20 27 -15 3 -30 17 -36 32
-10 25 -10 25 -6 -8 l5 -35 -15 30 c-8 17 -14 40 -15 53 0 28 -35 30 -43 2 -3
-12 -14 -20 -25 -20 -12 0 -23 -9 -27 -20 -6 -19 -35 -29 -35 -12 0 16 76 81
135 115 33 19 71 47 84 61 13 14 29 23 35 19 6 -3 8 -3 4 2 -4 4 -3 16 3 26
14 26 10 24 -41 -29z"/>
<path d="M650 1900 c0 -5 5 -10 10 -10 6 0 10 5 10 10 0 6 -4 10 -10 10 -5 0
-10 -4 -10 -10z"/>
<path d="M1016 1863 c-6 -14 -5 -15 5 -6 7 7 10 15 7 18 -3 3 -9 -2 -12 -12z"/>
<path d="M590 1856 c0 -2 8 -10 18 -17 15 -13 16 -12 3 4 -13 16 -21 21 -21
13z"/>
<path d="M668 1813 c6 -2 18 -2 25 0 6 3 1 5 -13 5 -14 0 -19 -2 -12 -5z"/>
<path d="M1925 1790 c3 -5 8 -10 11 -10 2 0 4 5 4 10 0 6 -5 10 -11 10 -5 0
-7 -4 -4 -10z"/>
<path d="M527 1763 c-3 -5 7 -8 21 -8 15 -1 38 -4 52 -8 20 -5 18 -4 -5 8 -33
16 -61 19 -68 8z"/>
<path d="M1926 1755 c-3 -9 -20 -22 -39 -30 -45 -19 -61 -39 -102 -128 -50
-111 -43 -109 13 3 42 85 51 97 89 114 37 17 61 42 49 53 -2 2 -6 -3 -10 -12z"/>
<path d="M530 1733 c0 -7 5 -15 10 -18 6 -3 10 -10 10 -15 0 -5 -17 0 -37 12
l-38 21 30 -27 c17 -14 40 -29 52 -32 18 -5 22 -11 17 -28 -3 -15 2 -31 16
-47 l22 -24 -16 25 c-22 33 -20 47 9 75 26 27 22 35 -6 9 -16 -14 -19 -13 -43
23 -14 21 -26 32 -26 26z"/>
<path d="M732 1680 c-2 -78 25 -132 84 -170 27 -16 55 -30 63 -30 9 0 -2 9
-24 19 -78 35 -109 87 -118 196 -3 32 -4 29 -5 -15z"/>
<path d="M1600 1700 c-19 -46 -93 -114 -160 -147 l-58 -29 20 -24 c19 -24 19
-24 8 -2 -6 13 -10 24 -8 25 73 37 108 60 143 93 41 40 81 101 72 110 -2 3
-10 -9 -17 -26z"/>
<path d="M480 1669 c0 -5 5 -7 10 -4 6 3 10 8 10 11 0 2 -4 4 -10 4 -5 0 -10
-5 -10 -11z"/>
<path d="M677 1607 c-15 -23 -15 -26 11 -48 27 -24 27 -24 7 -1 -16 20 -17 26
-6 44 18 29 7 33 -12 5z"/>
<path d="M1051 1614 c-1 -12 -8 -27 -16 -34 -12 -10 -13 -15 -4 -21 19 -11 2
-39 -24 -39 -26 0 -112 -44 -124 -63 -6 -10 61 26 82 45 14 13 23 10 28 -9 4
-17 5 -17 6 0 0 9 7 17 15 17 7 0 19 7 26 15 7 8 17 12 22 9 5 -3 4 3 -4 15
-11 18 -10 22 7 35 11 8 23 12 27 10 5 -3 8 0 8 5 0 15 -17 14 -26 -1 -6 -9
-10 -5 -15 12 -6 22 -7 23 -8 4z"/>
<path d="M628 1573 c7 -3 16 -2 19 1 4 3 -2 6 -13 5 -11 0 -14 -3 -6 -6z"/>
<path d="M1320 1575 c0 -2 10 -10 23 -16 20 -11 21 -11 8 4 -13 16 -31 23 -31
12z"/>
<path d="M1177 1559 c9 -9 8 -19 -4 -43 l-16 -31 29 25 c16 14 34 28 39 33 6
5 2 5 -7 2 -10 -4 -18 -3 -18 3 0 5 -8 13 -17 17 -14 5 -15 4 -6 -6z"/>
<path d="M1101 1544 c0 -11 3 -14 6 -6 3 7 2 16 -1 19 -3 4 -6 -2 -5 -13z"/>
<path d="M276 1505 c-4 -12 -2 -13 14 -2 35 21 69 -15 84 -88 6 -28 3 -33 -29
-48 -32 -15 -36 -21 -33 -49 2 -17 9 -33 16 -34 7 -1 8 0 2 3 -18 9 -11 51 12
67 12 9 34 16 48 16 14 0 20 3 14 8 -7 4 -17 27 -24 51 -17 65 -37 91 -70 91
-15 0 -30 -7 -34 -15z"/>
<path d="M1095 1510 c3 -5 8 -10 11 -10 2 0 4 5 4 10 0 6 -5 10 -11 10 -5 0
-7 -4 -4 -10z"/>
<path d="M286 1448 c4 -29 1 -37 -13 -41 -14 -4 -13 -5 5 -6 24 -1 27 14 11
59 -7 20 -8 18 -3 -12z"/>
<path d="M740 1478 c1 -2 6 -27 13 -56 13 -53 13 -53 33 -35 10 10 15 15 10
11 -18 -14 -24 -8 -35 37 -6 25 -13 45 -16 45 -3 0 -5 -1 -5 -2z"/>
<path d="M1715 1450 c-9 -17 -45 -62 -82 -100 -53 -57 -70 -69 -87 -64 -27 8
-21 3 29 -25 35 -20 38 -21 22 -4 -16 19 -16 21 4 39 46 41 150 184 135 184
-3 0 -13 -14 -21 -30z"/>
<path d="M1270 1426 c0 -2 8 -10 18 -17 15 -13 16 -12 3 4 -13 16 -21 21 -21
13z"/>
<path d="M215 1382 c-16 -13 -19 -23 -14 -42 6 -21 7 -21 8 -5 1 11 8 31 17
43 18 26 16 27 -11 4z"/>
<path d="M994 1368 l-29 -33 33 29 c17 17 32 31 32 33 0 8 -8 1 -36 -29z"/>
<path d="M1355 1350 c22 -25 41 -47 43 -49 1 -2 4 -2 7 0 2 3 -17 25 -43 50
l-47 44 40 -45z"/>
<path d="M110 1360 c-11 -11 -20 -25 -20 -31 0 -7 9 0 20 14 11 14 33 28 48
30 l27 4 -27 2 c-16 0 -37 -8 -48 -19z"/>
<path d="M1452 1350 c0 -19 2 -27 5 -17 2 9 2 25 0 35 -3 9 -5 1 -5 -18z"/>
<path d="M420 1366 c0 -2 8 -10 18 -17 15 -13 16 -12 3 4 -13 16 -21 21 -21
13z"/>
<path d="M293 1305 c0 -22 2 -30 4 -17 2 12 2 30 0 40 -3 9 -5 -1 -4 -23z"/>
<path d="M452 1310 c-1 -14 -5 -34 -8 -45 -4 -18 0 -20 43 -21 l48 -2 -37 10
c-33 9 -37 14 -41 46 -2 23 -4 28 -5 12z"/>
<path d="M733 1313 c9 -2 23 -2 30 0 6 3 -1 5 -18 5 -16 0 -22 -2 -12 -5z"/>
<path d="M109 1297 c9 -12 23 -17 38 -14 18 3 23 0 23 -15 0 -31 28 -76 60
-95 16 -9 30 -21 30 -26 0 -4 5 -5 11 -1 6 3 -5 16 -27 29 -54 33 -85 103 -51
119 6 4 -6 4 -27 1 -23 -2 -46 1 -55 8 -14 11 -14 10 -2 -6z"/>
<path d="M630 1300 c-11 -8 -7 -9 15 -4 37 8 45 14 19 14 -10 0 -26 -5 -34
-10z"/>
<path d="M210 1294 c0 -7 8 -22 19 -35 16 -20 22 -22 42 -11 18 9 19 11 4 7
-23 -5 -37 2 -53 30 -6 11 -12 15 -12 9z"/>
<path d="M373 1290 c-13 -5 -23 -11 -23 -14 0 -7 40 6 46 15 6 10 6 10 -23 -1z"/>
<path d="M1498 1293 c7 -3 16 -2 19 1 4 3 -2 6 -13 5 -11 0 -14 -3 -6 -6z"/>
<path d="M855 1280 c3 -5 8 -10 11 -10 2 0 4 5 4 10 0 6 -5 10 -11 10 -5 0 -7
-4 -4 -10z"/>
<path d="M591 1258 c-1 -10 -12 -18 -28 -21 -16 -2 -3 -4 27 -4 30 0 45 2 33
4 -12 2 -24 12 -26 21 -4 16 -5 16 -6 0z"/>
<path d="M662 1254 c-14 -16 -5 -18 17 -5 7 5 9 11 5 14 -5 3 -15 -1 -22 -9z"/>
<path d="M1653 1204 c22 -23 35 -44 30 -46 -4 -3 -1 -3 7 0 8 2 53 8 100 12
l85 8 -90 -3 -90 -3 -40 37 -40 36 38 -41z"/>
<path d="M716 1197 c3 -10 9 -15 12 -12 3 3 0 11 -7 18 -10 9 -11 8 -5 -6z"/>
<path d="M731 1165 c1 -19 18 -51 18 -35 0 8 -4 22 -9 30 -5 8 -9 11 -9 5z"/>
<path d="M1888 1163 c7 -3 16 -2 19 1 4 3 -2 6 -13 5 -11 0 -14 -3 -6 -6z"/>
<path d="M1955 1140 c70 -35 113 -78 147 -147 30 -61 33 -75 32 -157 0 -66 -7
-113 -24 -170 l-24 -79 -80 6 c-92 6 -177 34 -223 74 -31 27 -32 30 -23 73 5
27 5 49 -1 55 -5 5 -9 -4 -9 -24 0 -28 -10 -43 -62 -93 -141 -133 -231 -184
-345 -196 -151 -16 -281 16 -376 91 l-52 42 69 8 c104 11 193 34 271 70 70 31
85 43 84 62 0 6 -3 4 -6 -3 -8 -21 -119 -72 -202 -93 -42 -11 -119 -22 -171
-26 l-96 -6 -13 29 c-8 16 -22 54 -31 84 l-18 55 -55 3 c-54 3 -55 2 -66 -29
-33 -94 21 -219 128 -302 34 -26 38 -33 29 -50 -25 -48 40 -235 106 -300 72
-72 180 -103 273 -78 59 16 133 87 176 169 34 64 87 231 87 277 0 13 18 31 53
52 29 18 87 64 130 103 42 40 77 65 77 58 0 -8 -7 -23 -15 -34 -8 -10 -15 -29
-15 -40 0 -12 -7 -27 -15 -34 -33 -28 -11 -155 30 -170 17 -7 24 -20 29 -55
11 -72 44 -157 73 -187 48 -50 116 -30 154 45 24 46 49 155 49 214 0 28 6 48
19 60 23 23 66 130 87 219 21 89 14 203 -15 270 -34 75 -115 151 -181 168 -14
4 -7 -3 15 -14z m-19 -555 c38 -8 86 -15 107 -15 l38 0 -17 -31 -16 -31 -86 4
c-96 5 -153 25 -212 76 -32 27 -33 31 -22 56 l12 26 64 -35 c35 -20 95 -42
132 -50z m-886 -112 c0 -39 -8 -47 -64 -61 -27 -7 -68 -26 -92 -42 -44 -30
-54 -26 -54 20 0 35 125 108 188 110 18 0 22 -5 22 -27z m225 -7 c93 -1 129 3
158 16 l39 18 -7 -33 c-50 -246 -132 -384 -250 -417 -90 -25 -210 12 -275 86
-41 47 -82 138 -78 173 4 31 52 65 121 86 28 8 52 13 54 11 2 -2 -5 -27 -16
-57 -11 -29 -18 -55 -16 -57 11 -11 49 97 53 149 l4 56 47 -15 c30 -10 87 -15
166 -16z"/>
<path d="M1574 1106 c-28 -19 -71 -57 -96 -85 -43 -48 -118 -177 -133 -231 -4
-14 15 18 42 71 59 117 115 185 195 239 33 22 56 40 52 40 -5 0 -32 -15 -60
-34z"/>
<path d="M287 1099 c18 -32 80 -87 121 -108 38 -20 24 -6 -26 27 -27 17 -61
50 -77 72 -33 48 -44 53 -18 9z"/>
<path d="M752 1085 c0 -16 2 -22 5 -12 2 9 2 23 0 30 -3 6 -5 -1 -5 -18z"/>
<path d="M879 1003 c-13 -16 -12 -17 4 -4 9 7 17 15 17 17 0 8 -8 3 -21 -13z"/>
<path d="M455 968 c30 -17 124 -38 170 -37 29 1 17 5 -40 14 -44 7 -93 18
-108 24 -36 14 -48 14 -22 -1z"/>
<path d="M676 942 c-2 -4 5 -14 17 -22 20 -12 21 -12 9 3 -11 13 -10 16 10 20
21 4 20 4 -4 6 -15 0 -29 -3 -32 -7z"/>
<path d="M750 919 c-31 -18 -26 -19 14 -3 10 4 16 -2 19 -18 3 -17 5 -15 6 10
0 17 0 32 -1 32 -2 -1 -19 -10 -38 -21z"/>
<path d="M792 830 c0 -14 2 -19 5 -12 2 6 2 18 0 25 -3 6 -5 1 -5 -13z"/>
</g>
</svg>
